<svg width="60" height="23" viewBox="0 0 60 23" fill="none" xmlns="http://www.w3.org/2000/svg">
<path d="M0 22.5441V0.595741L3.13548 0V13.5766L10.8801 6.58451H14.5486L6.30232 14.047L14.9876 22.5441H10.8488L3.13548 15.0503V22.5441H0Z" fill="#48CBCA"/>
<path d="M22.6223 22.8577C21.0754 22.8577 19.6645 22.4919 18.3894 21.7602C17.1352 21.0286 16.1423 20.0357 15.4106 18.7815C14.679 17.5273 14.3132 16.1268 14.3132 14.58C14.3132 13.0332 14.679 11.6326 15.4106 10.3784C16.1423 9.12425 17.1352 8.13135 18.3894 7.39974C19.6645 6.64722 21.0754 6.27096 22.6223 6.27096C24.19 6.27096 25.601 6.64722 26.8552 7.39974C28.1094 8.13135 29.1023 9.12425 29.8339 10.3784C30.5655 11.6326 30.9313 13.0332 30.9313 14.58C30.9313 16.1268 30.5655 17.5273 29.8339 18.7815C29.1023 20.0357 28.1094 21.0286 26.8552 21.7602C25.601 22.4919 24.19 22.8577 22.6223 22.8577ZM22.6223 20.0984C23.6047 20.0984 24.4931 19.8581 25.2874 19.3773C26.0817 18.8756 26.7088 18.2067 27.1687 17.3706C27.6286 16.5344 27.8585 15.5938 27.8585 14.5486C27.8585 13.5244 27.6181 12.6046 27.1374 11.7894C26.6775 10.9533 26.0504 10.2844 25.2561 9.7827C24.4826 9.28103 23.6047 9.03019 22.6223 9.03019C21.6398 9.03019 20.7514 9.28103 19.9571 9.7827C19.1837 10.2844 18.5566 10.9533 18.0758 11.7894C17.6159 12.6046 17.386 13.5244 17.386 14.5486C17.386 15.5938 17.6159 16.5344 18.0758 17.3706C18.5357 18.2067 19.1628 18.8756 19.9571 19.3773C20.7514 19.8581 21.6398 20.0984 22.6223 20.0984Z" fill="#48CBCA"/>
<path d="M33.8963 22.5441V6.58451H37.0318V8.62257C37.5334 7.87006 38.1501 7.28477 38.8817 6.86671C39.6342 6.42774 40.4808 6.20825 41.4214 6.20825C42.0694 6.22916 42.6025 6.32322 43.0205 6.49045V9.31238C42.7279 9.18696 42.4248 9.10335 42.1112 9.06154C41.7977 8.99883 41.4841 8.96748 41.1706 8.96748C40.2508 8.96748 39.4356 9.21832 38.7249 9.71999C38.0142 10.2008 37.4498 10.9115 37.0318 11.8521V22.5441H33.8963Z" fill="#48CBCA"/>
<path d="M52.2638 22.8263C50.6961 22.8263 49.2747 22.4605 47.9996 21.7289C46.7454 20.9973 45.742 20.0044 44.9895 18.7502C44.2579 17.496 43.8921 16.0955 43.8921 14.5486C43.8921 13.0227 44.2474 11.6431 44.9582 10.4098C45.6689 9.15561 46.6304 8.16271 47.8428 7.43109C49.0552 6.67858 50.4034 6.30232 51.8876 6.30232C53.3717 6.30232 54.6886 6.67858 55.8383 7.43109C56.988 8.16271 57.8972 9.16606 58.5661 10.4412C59.256 11.6953 59.6009 13.1168 59.6009 14.7054V15.5833H47.0276C47.1948 16.4613 47.5188 17.2452 47.9996 17.935C48.5013 18.6248 49.1283 19.1682 49.8809 19.5654C50.6543 19.9626 51.4904 20.1611 52.3892 20.1611C53.1627 20.1611 53.9047 20.0462 54.6154 19.8162C55.3471 19.5654 55.9532 19.2101 56.434 18.7502L58.4407 20.7255C57.5001 21.4362 56.5281 21.9693 55.5247 22.3246C54.5423 22.6591 53.4553 22.8263 52.2638 22.8263ZM47.0589 13.2317H56.4967C56.3713 12.3956 56.0787 11.664 55.6188 11.0369C55.1798 10.3889 54.6259 9.88722 53.957 9.53187C53.309 9.15561 52.5983 8.96748 51.8249 8.96748C51.0305 8.96748 50.2989 9.14516 49.63 9.50051C48.9611 9.85587 48.3967 10.3575 47.9369 11.0055C47.4979 11.6326 47.2052 12.3747 47.0589 13.2317Z" fill="#48CBCA"/>
</svg>
